<svg xmlns="http://www.w3.org/2000/svg" width="40" height="40" fill="none">
    <mask id="audio_svg__b" width="32" height="40" x="4" y="0" maskUnits="userSpaceOnUse" style="mask-type: alpha">
        <path fill="url(#audio_svg__a)" d="M4 4a4 4 0 0 1 4-4h16l12 12v24a4 4 0 0 1-4 4H8a4 4 0 0 1-4-4z" />
    </mask>
    <g mask="url(#audio_svg__b)">
        <path fill="#F5F5F5" d="M4 4a4 4 0 0 1 4-4h16l12 12v24a4 4 0 0 1-4 4H8a4 4 0 0 1-4-4z" />
    </g>
    <path fill="#E9EAEB" d="m24 0 12 12h-8a4 4 0 0 1-4-4z" />
    <path
        stroke="#414651"
        stroke-linecap="round"
        stroke-linejoin="round"
        stroke-width="1.5"
        d="M17.2 28v-7.763c0-.321 0-.482.058-.612a.67.67 0 0 1 .24-.282c.118-.079.277-.105.593-.158l5.867-.978c.427-.071.64-.107.807-.045a.67.67 0 0 1 .347.293c.088.154.088.371.088.804v7.408M17.2 28a2 2 0 1 1-4 0 2 2 0 0 1 4 0m8-1.333a2 2 0 1 1-4 0 2 2 0 0 1 4 0"
    />
    <defs>
        <linearGradient id="audio_svg__a" x1="20" x2="20" y1="0" y2="40" gradientUnits="userSpaceOnUse">
            <stop stop-opacity=".4" />
            <stop offset="1" />
        </linearGradient>
    </defs>
</svg>
